<?xml version="1.0" standalone="no"?>
<!DOCTYPE svg PUBLIC "-//W3C//DTD SVG 20010904//EN"
 "http://www.w3.org/TR/2001/REC-SVG-20010904/DTD/svg10.dtd">
<svg version="1.0" xmlns="http://www.w3.org/2000/svg"
 width="16.000000pt" height="16.000000pt" viewBox="0 0 16.000000 16.000000"
 preserveAspectRatio="xMidYMid meet">
<g transform="translate(0.000000,16.000000) scale(0.003156,-0.003156)"
fill="#000000" stroke="none">
<path d="M3142 4398 c-16 -29 -318 -513 -671 -1076 -352 -563 -641 -1027 -641
-1031 0 -4 96 -13 212 -20 117 -7 214 -14 217 -16 4 -4 -468 -1523 -501 -1613
-11 -29 -18 -55 -16 -57 4 -4 1640 2267 1646 2285 3 7 -88 10 -283 10 -268 0
-286 1 -281 18 18 63 356 1545 353 1549 -3 2 -18 -20 -35 -49z"/>
<path d="M370 2530 l0 -1750 553 0 553 0 42 158 c23 86 42 163 42 170 0 9 -92
12 -425 12 l-425 0 0 1410 0 1410 764 0 764 0 -34 -112 c-131 -439 -152 -513
-150 -515 2 -2 489 736 621 940 l17 27 -1161 0 -1161 0 0 -1750z"/>
<path d="M3446 4248 c-5 -32 -36 -291 -36 -303 0 -3 209 -5 465 -5 l465 0 0
-1410 0 -1410 -775 0 -775 0 11 28 c52 136 219 595 217 597 -2 2 -166 -214
-366 -478 l-363 -482 68 -2 c37 -2 575 -4 1196 -5 l1127 -3 0 1753 0 1752
-615 0 -614 0 -5 -32z"/>
</g>
</svg>
